<?xml version="1.0" encoding="utf-8"?>
<!-- Generator: Adobe Illustrator 19.2.1, SVG Export Plug-In . SVG Version: 6.00 Build 0)  -->
<svg version="1.1" id="Layer_1" xmlns="http://www.w3.org/2000/svg" xmlns:xlink="http://www.w3.org/1999/xlink" x="0px" y="0px"
	 width="701.3px" height="663.5px" viewBox="0 0 701.3 663.5" style="enable-background:new 0 0 701.3 663.5;" xml:space="preserve"
	>
<style type="text/css">
	.st0{fill:none;stroke:#000000;stroke-width:0.5;stroke-miterlimit:10;}
	.st1{opacity:0.65;}
	.st2{fill:#222222;}
</style>
<g>
	<polygon class="st0" points="632.3,0.9 350.6,164.3 350.6,662.3 	"/>
	<polygon class="st0" points="632.3,0.9 543.1,210.2 700.6,512.6 	"/>
	<g>
		<polyline class="st0" points="474.9,370.7 474.9,370.7 700.6,512.6 543.1,210.2 		"/>
		<polygon class="st0" points="69.4,0.9 350.6,662.3 350.6,164.3 		"/>
	</g>
	<polygon class="st0" points="69.4,0.9 0.6,512.6 158.4,210.2 	"/>
	<polygon class="st0" points="0.6,512.6 226.5,370.5 158.4,210.2 	"/>
	<path class="st0" d="M543.1,210.2L543.1,210.2 M632,1.3l-88.9,209L632,1.3L632,1.3z M632,0.9L632,0.9z"/>
	<line class="st0" x1="632" y1="1.2" x2="632" y2="1.2"/>
	<path class="st0" d="M158.3,210.2L158.3,210.2 M69.1,0.9L69.1,0.9l89.1,209.3l68.3,160.4L69.1,0.9L69.1,0.9z"/>
	<polyline class="st0" points="158.4,210.2 69.4,0.9 69.4,0.9 	"/>
	<polyline class="st0" points="226.5,370.5 158.4,210.2 158.4,210.2 158.4,210.2 	"/>
</g>
<title>login</title>
<g>
	<g class="st1">
		<polygon class="st2" points="583.3,464.9 657,331.7 583.2,198.1 503.8,54.7 197.6,54.7 123.8,188 44.5,331.7 123.7,474.8 
			197.6,608.4 197.6,608.4 503.8,608.4 		"/>
	</g>
	<g class="st1">
		<polygon class="st2" points="484,93.2 350.6,19.5 217.1,93.5 73.9,172.6 73.9,478.9 207.1,552.7 350.6,632 494,552.9 627.6,478.9 
			627.6,478.9 627.6,172.6 		"/>
	</g>
</g>
</svg>
