<?xml version="1.0" encoding="utf-8"?>
<!-- Generator: Adobe Illustrator 19.2.1, SVG Export Plug-In . SVG Version: 6.00 Build 0)  -->
<svg version="1.1" xmlns="http://www.w3.org/2000/svg" xmlns:xlink="http://www.w3.org/1999/xlink" x="0px" y="0px"
	 viewBox="0 0 120.3 113.8" style="enable-background:new 0 0 120.3 113.8;" xml:space="preserve">
<style type="text/css">
	.st0{display:none;opacity:0.5;}
	.st1{display:inline;}
	.st2{fill:#222222;}
	.st3{display:none;}
	.st4{fill:none;stroke:#000000;stroke-width:0.1;stroke-miterlimit:10;}
	.st5{display:inline;fill:none;stroke:#000000;stroke-width:0.1;stroke-miterlimit:10;}
	.st6{opacity:0.8;}
	.st7{fill:none;stroke:#222222;stroke-miterlimit:10;}
	.st8{opacity:0.9;}
	.st9{clip-path:url(#SVGID_2_);fill:#DEDE59;}
	.st10{fill:#B5CA54;}
	.st11{clip-path:url(#SVGID_4_);fill:#4B8053;}
	.st12{clip-path:url(#SVGID_4_);fill:#8CB75C;}
	.st13{fill:#68A85C;}
	.st14{fill:#4B8053;}
	.st15{fill:#467E3E;}
	.st16{fill:#3F7C3F;}
	.st17{fill:#266036;}
	.st18{fill:#317940;}
</style>
<g id="label_1_">
</g>
<g id="Layer_2_copy">
	<g class="st0">
		<g class="st1">
			<polygon class="st2" points="100,79.7 112.6,56.9 100,34 86.4,9.4 33.9,9.4 21.2,32.3 7.6,56.9 21.2,81.4 33.9,104.3 33.9,104.3 
				86.4,104.3 			"/>
		</g>
	</g>
	<g class="st0">
		<g class="st1">
			<polygon class="st2" points="83,16 60.1,3.4 37.2,16 12.7,29.6 12.7,82.1 35.5,94.8 60.1,108.4 84.7,94.8 107.6,82.1 107.6,82.1 
				107.6,29.6 			"/>
		</g>
	</g>
	<g class="st3">
		<g class="st1">
			<polygon class="st4" points="108.4,0.2 60.1,28.2 60.1,113.6 108.4,0.2 			"/>
		</g>
		<polygon class="st5" points="108.4,0.2 93.1,36.1 120.1,87.9 108.4,0.2 		"/>
		<g class="st1">
			<polygon class="st4" points="81.4,63.5 120.1,87.9 93.1,36.1 81.4,63.5 			"/>
			<polygon class="st4" points="11.9,0.2 60.1,113.6 60.1,28.2 11.9,0.2 			"/>
		</g>
		<polygon class="st5" points="11.9,0.2 0.1,87.9 27.1,36.1 11.9,0.2 		"/>
		<polygon class="st5" points="0.1,87.9 38.8,63.5 27.1,36.1 0.1,87.9 		"/>
		<path class="st5" d="M93.1,36.1l3.4,6.5l0,0L93.1,36.1L93.1,36.1z M108.4,0.2L86.9,50.6l6.2-14.6L108.4,0.2L108.4,0.2z M108.4,0.2
			L108.4,0.2L108.4,0.2L108.4,0.2L108.4,0.2z"/>
		<polygon class="st5" points="108.4,0.2 108.4,0.2 81.4,63.5 86.9,50.6 108.4,0.2 108.4,0.2 		"/>
		<polyline class="st5" points="108.4,0.2 108.4,0.2 93.1,36.1 96.5,42.6 		"/>
		<polyline class="st5" points="96.5,42.6 93.1,36.1 93.1,36.1 86.9,50.6 81.4,63.5 89.3,68.5 		"/>
		<path class="st5" d="M27.1,36.1l-3.4,6.5L27.1,36.1L27.1,36.1z M11.9,0.2L11.9,0.2l15.3,35.9l11.7,27.5L11.9,0.2L11.9,0.2z"/>
		<polyline class="st5" points="23.7,42.6 27.1,36.1 11.9,0.2 11.9,0.2 		"/>
		<polyline class="st5" points="31,68.5 38.8,63.5 27.1,36.1 27.1,36.1 27.1,36.1 23.7,42.6 		"/>
	</g>
	<g class="st6">
		<g>
			<polygon class="st7" points="99.9,79.7 112.6,56.9 99.9,34 86.3,9.4 33.8,9.4 21.2,32.3 7.6,56.9 21.2,81.4 33.8,104.3 
				33.8,104.3 86.3,104.3 			"/>
		</g>
	</g>
	<g class="st6">
		<g>
			<polygon class="st7" points="82.9,16 60.1,3.4 37.2,16 12.6,29.6 12.6,82.1 35.5,94.8 60.1,108.4 84.6,94.8 107.5,82.1 
				107.5,82.1 107.5,29.6 			"/>
		</g>
	</g>
	<g class="st8">
		<g>
			<defs>
				<polygon id="SVGID_1_" points="0.1,0.2 120.3,0.2 120.3,113.7 0.1,113.7 0.1,0.2 				"/>
			</defs>
			<clipPath id="SVGID_2_">
				<use xlink:href="#SVGID_1_"  style="overflow:visible;"/>
			</clipPath>
			<polygon class="st9" points="108.5,0.2 60.2,28.2 60.2,113.7 108.5,0.2 			"/>
		</g>
		<polygon class="st10" points="108.5,0.2 93.2,36.1 120.3,88 108.5,0.2 		"/>
		<g>
			<defs>
				<polygon id="SVGID_3_" points="0.1,0.2 120.3,0.2 120.3,113.7 0.1,113.7 0.1,0.2 				"/>
			</defs>
			<clipPath id="SVGID_4_">
				<use xlink:href="#SVGID_3_"  style="overflow:visible;"/>
			</clipPath>
			<polygon class="st11" points="81.5,63.6 120.3,88 93.2,36.1 81.5,63.6 			"/>
			<polygon class="st12" points="11.8,0.2 60.2,113.7 60.2,28.2 11.8,0.2 			"/>
		</g>
		<polygon class="st13" points="11.8,0.2 0.1,88 27.1,36.1 11.8,0.2 		"/>
		<polygon class="st14" points="0.1,88 38.9,63.6 27.1,36.1 0.1,88 		"/>
		<path class="st14" d="M93.2,36.1l3.4,6.6l0,0L93.2,36.1L93.2,36.1z M108.5,0.2L87,50.7l6.2-14.6L108.5,0.2L108.5,0.2z M108.5,0.2
			L108.5,0.2L108.5,0.2L108.5,0.2L108.5,0.2z"/>
		<polygon class="st15" points="108.5,0.2 108.5,0.2 81.5,63.6 87,50.7 108.5,0.2 108.5,0.2 		"/>
		<polygon class="st16" points="108.5,0.2 93.2,36.1 96.6,42.7 108.5,0.2 		"/>
		<polygon class="st17" points="93.2,36.1 87,50.7 81.5,63.6 89.4,68.6 96.6,42.7 93.2,36.1 		"/>
		<path class="st14" d="M27.1,36.1l-3.4,6.6L27.1,36.1L27.1,36.1z M11.8,0.2L11.8,0.2l15.3,35.9l11.7,27.5L11.8,0.2L11.8,0.2z"/>
		<polygon class="st18" points="11.8,0.2 23.7,42.7 27.1,36.1 11.8,0.2 		"/>
		<polygon class="st17" points="27.1,36.1 27.1,36.1 23.7,42.7 31,68.6 38.9,63.6 27.1,36.1 		"/>
	</g>
</g>
</svg>
